<svg id="svg" version="1.1" xmlns="http://www.w3.org/2000/svg" xmlns:xlink="http://www.w3.org/1999/xlink" width="400" height="386.7158671586716" viewBox="0, 0, 400,386.7158671586716"><g id="svgg"><path id="path0" d="M306.257 71.083 C 306.163 71.243,305.965 72.157,305.818 73.114 C 305.672 74.072,305.320 75.551,305.036 76.402 C 304.753 77.253,304.045 79.429,303.463 81.238 C 302.350 84.698,299.797 90.095,298.103 92.570 C 297.551 93.378,297.099 94.109,297.099 94.196 C 297.099 94.283,296.281 95.523,295.282 96.952 C 291.358 102.566,284.216 108.278,276.228 112.192 C 272.434 114.050,261.252 117.594,256.779 118.355 C 252.289 119.120,251.605 120.577,255.554 120.964 C 256.808 121.087,258.008 121.318,258.221 121.476 C 258.433 121.634,260.522 122.241,262.863 122.825 C 265.203 123.408,267.640 124.100,268.279 124.362 C 278.340 128.492,281.844 130.562,288.818 136.495 C 294.166 141.044,299.986 149.679,302.289 156.481 C 302.865 158.183,303.587 160.123,303.893 160.793 C 304.198 161.464,304.449 162.308,304.449 162.668 C 304.449 163.029,304.696 164.221,304.997 165.318 C 305.299 166.414,305.663 168.007,305.806 168.857 L 306.067 170.402 306.974 169.348 C 307.511 168.723,307.982 167.541,308.130 166.448 C 309.338 157.491,317.116 143.113,324.632 135.946 C 329.365 131.432,338.151 125.962,341.973 125.150 C 342.718 124.992,343.501 124.735,343.714 124.579 C 344.507 123.999,352.639 121.740,356.480 121.033 C 360.429 120.306,359.730 119.216,354.647 118.176 C 330.037 113.137,315.022 100.026,309.687 78.917 C 309.391 77.747,308.971 76.093,308.753 75.242 C 308.535 74.391,308.253 73.042,308.126 72.244 C 307.908 70.874,306.791 70.180,306.257 71.083 M72.340 100.353 C 55.263 107.296,58.275 132.509,76.391 134.264 C 81.042 134.714,211.871 134.709,214.986 134.258 C 229.630 132.140,234.584 110.657,222.320 102.457 C 217.380 99.154,224.295 99.422,144.874 99.457 L 74.468 99.488 72.340 100.353 M72.921 181.838 C 59.857 185.704,56.841 202.938,67.652 211.947 C 73.185 216.557,65.835 216.248,169.829 216.248 C 272.376 216.248,264.153 216.548,269.799 212.593 C 277.107 207.475,279.832 195.055,274.856 189.556 C 274.536 189.203,274.275 188.728,274.275 188.500 C 274.275 187.743,269.943 184.113,267.546 182.859 L 265.184 181.625 169.632 181.560 C 114.903 181.522,73.585 181.641,72.921 181.838 M74.468 262.690 C 57.726 266.283,56.016 288.372,71.922 295.570 L 74.018 296.518 193.586 296.518 L 313.153 296.518 315.696 295.250 C 319.411 293.397,323.942 288.901,324.750 286.267 C 324.913 285.735,325.226 285.076,325.445 284.802 C 325.665 284.527,325.924 282.613,326.020 280.546 C 326.450 271.359,321.318 264.550,312.418 262.503 C 308.434 261.587,78.769 261.767,74.468 262.690 " stroke="none" fill="#4cf7f6" fill-rule="evenodd"></path><path id="path1" d="M76.596 0.387 C 76.596 0.612,75.324 0.774,73.553 0.774 C 71.096 0.774,70.321 0.923,69.527 1.547 C 68.870 2.064,67.958 2.321,66.780 2.321 C 65.413 2.321,64.925 2.495,64.603 3.095 C 64.288 3.685,63.793 3.868,62.522 3.868 C 61.346 3.868,60.649 4.096,60.155 4.642 C 59.693 5.152,58.963 5.416,58.014 5.416 C 57.222 5.416,56.375 5.656,56.132 5.950 C 55.888 6.243,55.146 6.592,54.482 6.725 C 53.818 6.857,53.056 7.265,52.788 7.631 C 52.366 8.208,52.176 8.229,51.347 7.785 C 49.973 7.050,48.958 7.360,48.819 8.558 C 48.746 9.182,48.341 9.730,47.755 9.997 C 47.234 10.234,46.809 10.606,46.809 10.823 C 46.809 11.041,46.487 11.219,46.095 11.219 C 45.702 11.219,45.066 11.567,44.681 11.992 C 44.296 12.418,43.675 12.766,43.302 12.766 C 42.527 12.766,39.458 14.674,39.458 15.156 C 39.458 15.331,39.212 15.474,38.911 15.474 C 38.403 15.474,37.339 16.239,35.549 17.892 C 35.146 18.264,34.667 18.569,34.484 18.569 C 34.301 18.569,33.561 19.264,32.840 20.114 C 32.118 20.964,31.310 21.660,31.044 21.662 C 30.779 21.663,30.561 21.913,30.561 22.218 C 30.561 22.522,30.213 22.882,29.787 23.017 C 29.362 23.152,29.014 23.512,29.014 23.817 C 29.014 24.122,28.796 24.372,28.530 24.374 C 27.854 24.377,24.371 27.740,24.371 28.390 C 24.371 28.683,24.023 29.014,23.598 29.126 C 23.172 29.237,22.824 29.605,22.824 29.944 C 22.824 30.284,22.563 30.561,22.244 30.561 C 21.925 30.561,21.663 30.810,21.663 31.115 C 21.663 31.420,21.315 31.780,20.890 31.915 C 20.464 32.050,20.116 32.497,20.116 32.908 C 20.116 33.319,19.867 33.656,19.562 33.656 C 19.257 33.656,18.884 34.047,18.733 34.526 C 18.582 35.005,18.135 35.678,17.740 36.022 C 17.345 36.366,17.021 36.932,17.021 37.279 C 17.021 37.627,16.870 37.911,16.685 37.911 C 16.500 37.911,15.694 38.956,14.894 40.232 C 14.093 41.509,13.287 42.553,13.102 42.553 C 12.917 42.553,12.766 42.990,12.766 43.524 C 12.766 44.058,12.418 44.793,11.992 45.157 C 11.567 45.522,11.219 46.283,11.219 46.849 C 11.219 47.553,10.974 47.943,10.445 48.081 C 9.929 48.216,9.671 48.609,9.671 49.261 C 9.671 50.039,9.455 50.264,8.611 50.361 C 7.384 50.503,7.034 51.490,7.741 52.813 C 8.140 53.558,8.089 53.806,7.393 54.503 C 6.944 54.952,6.576 55.781,6.576 56.346 C 6.576 57.314,6.536 57.336,5.875 56.738 C 4.684 55.660,3.572 57.576,4.721 58.725 C 5.333 59.337,5.146 61.899,4.431 62.689 C 4.098 63.056,3.868 64.093,3.868 65.225 C 3.868 66.661,3.675 67.305,3.095 67.802 C 2.441 68.361,2.321 68.943,2.321 71.544 C 2.321 74.074,2.200 74.691,1.644 75.002 C 1.029 75.346,0.957 76.370,0.853 86.239 C 0.784 92.804,0.593 97.099,0.370 97.099 C 0.137 97.099,0.000 110.044,0.000 131.915 C 0.000 154.868,0.132 166.731,0.387 166.731 C 0.600 166.731,0.774 167.079,0.774 167.505 C 0.774 167.930,0.600 168.279,0.387 168.279 C 0.174 168.279,0.000 168.975,0.000 169.826 C 0.000 170.677,0.174 171.373,0.387 171.373 C 0.610 171.373,0.774 172.598,0.774 174.275 C 0.774 175.951,0.610 177.176,0.387 177.176 C 0.174 177.176,0.000 177.524,0.000 177.950 C 0.000 178.375,0.174 178.723,0.387 178.723 C 0.629 178.723,0.774 181.109,0.774 185.106 C 0.774 189.104,0.629 191.489,0.387 191.489 C 0.136 191.489,0.000 196.260,0.000 205.029 C 0.000 213.798,0.136 218.569,0.387 218.569 C 0.600 218.569,0.774 218.917,0.774 219.342 C 0.774 219.768,0.600 220.116,0.387 220.116 C 0.156 220.116,0.000 221.599,0.000 223.791 C 0.000 225.983,0.156 227.466,0.387 227.466 C 0.600 227.466,0.774 227.814,0.774 228.240 C 0.774 228.665,0.600 229.014,0.387 229.014 C 0.132 229.014,0.000 240.168,0.000 261.702 C 0.000 283.237,0.132 294.391,0.387 294.391 C 0.632 294.391,0.774 297.163,0.774 301.934 C 0.774 308.962,0.827 309.531,1.547 310.251 C 2.171 310.875,2.321 311.541,2.321 313.688 C 2.321 316.025,2.416 316.375,3.095 316.553 C 3.770 316.730,3.868 317.081,3.868 319.318 C 3.868 321.240,4.014 321.937,4.449 322.104 C 5.331 322.442,5.142 323.334,4.159 323.474 C 3.256 323.602,2.575 326.112,3.442 326.112 C 3.660 326.112,4.017 326.775,4.235 327.584 C 4.590 328.901,4.805 329.095,6.281 329.422 C 7.783 329.755,7.941 329.903,8.055 331.088 C 8.140 331.983,8.412 332.450,8.925 332.584 C 9.496 332.733,9.671 333.122,9.671 334.240 C 9.671 335.111,9.882 335.782,10.195 335.902 C 11.129 336.260,12.797 339.610,13.033 341.601 C 13.276 343.654,13.715 344.273,14.424 343.564 C 15.054 342.934,15.474 343.037,15.474 343.822 C 15.474 344.200,15.822 344.761,16.248 345.068 C 16.673 345.374,17.021 346.038,17.021 346.543 C 17.021 347.136,17.295 347.533,17.795 347.664 C 18.221 347.775,18.569 348.123,18.569 348.437 C 18.569 348.751,18.917 349.100,19.342 349.211 C 19.768 349.322,20.116 349.583,20.116 349.791 C 20.116 349.998,20.460 350.605,20.880 351.139 C 21.300 351.673,21.760 352.735,21.904 353.499 C 22.211 355.136,23.485 357.429,24.119 357.488 C 24.364 357.511,24.826 357.568,25.145 357.615 C 25.464 357.663,26.117 357.731,26.596 357.767 C 27.186 357.812,27.466 358.083,27.466 358.607 C 27.466 359.123,27.724 359.381,28.240 359.381 C 28.690 359.381,29.014 359.639,29.014 359.998 C 29.014 360.337,29.362 360.705,29.787 360.816 C 30.213 360.928,30.561 361.241,30.561 361.512 C 30.561 362.063,31.402 362.476,32.527 362.476 C 33.011 362.476,33.269 362.745,33.269 363.250 C 33.269 363.765,33.527 364.023,34.043 364.023 C 34.493 364.023,34.816 364.281,34.816 364.640 C 34.816 364.979,35.164 365.347,35.590 365.459 C 36.015 365.570,36.364 365.902,36.364 366.196 C 36.364 366.490,36.691 366.731,37.092 366.731 C 37.495 366.731,37.911 367.077,38.023 367.505 C 38.170 368.068,38.551 368.279,39.422 368.279 C 40.361 368.279,40.619 368.445,40.619 369.052 C 40.619 369.482,40.877 369.826,41.199 369.826 C 41.518 369.826,42.128 370.174,42.553 370.600 C 42.979 371.025,43.762 371.373,44.294 371.373 C 44.882 371.373,45.261 371.594,45.261 371.936 C 45.261 372.271,45.799 372.600,46.588 372.748 C 47.318 372.885,48.001 373.219,48.105 373.490 C 48.209 373.762,48.917 374.100,49.679 374.243 C 50.514 374.400,51.064 374.727,51.064 375.066 C 51.064 375.400,51.437 375.629,51.983 375.629 C 52.694 375.629,52.954 375.891,53.133 376.789 C 53.388 378.062,54.652 378.373,56.041 377.506 C 56.621 377.144,56.906 377.215,57.583 377.892 C 58.040 378.349,58.576 378.723,58.775 378.723 C 58.974 378.723,59.191 379.202,59.259 379.787 C 59.398 380.999,60.753 381.446,61.758 380.612 C 62.527 379.973,65.795 380.168,66.327 380.884 C 66.560 381.199,67.793 381.535,69.246 381.681 C 70.629 381.820,72.104 382.168,72.523 382.456 C 73.062 382.825,74.680 382.979,78.036 382.979 C 80.648 382.979,82.785 383.130,82.785 383.315 C 82.785 384.566,312.306 384.906,313.006 383.656 C 313.337 383.064,314.032 382.979,318.541 382.979 C 322.400 382.979,323.805 382.847,324.130 382.456 C 324.393 382.139,325.807 381.837,327.717 381.690 C 329.699 381.537,331.111 381.228,331.520 380.859 C 331.877 380.535,332.852 380.268,333.686 380.266 C 335.769 380.258,336.944 379.895,336.944 379.259 C 336.944 378.892,337.432 378.723,338.491 378.723 C 339.523 378.723,340.297 378.466,340.812 377.950 C 341.622 377.140,343.689 376.897,344.101 377.563 C 344.519 378.240,346.401 377.994,346.899 377.198 C 347.235 376.660,347.891 376.412,349.206 376.327 C 351.032 376.210,351.045 376.199,351.366 374.565 C 351.604 373.357,351.875 372.921,352.388 372.921 C 352.773 372.921,353.530 372.573,354.071 372.147 C 354.612 371.721,355.332 371.373,355.670 371.373 C 356.009 371.373,356.634 371.025,357.060 370.600 C 357.485 370.174,358.006 369.826,358.217 369.826 C 358.428 369.826,358.818 369.478,359.084 369.052 C 359.350 368.627,359.875 368.279,360.252 368.279 C 360.628 368.279,361.234 367.930,361.598 367.505 C 361.963 367.079,362.477 366.731,362.742 366.731 C 363.006 366.731,363.409 366.383,363.636 365.957 C 363.864 365.532,364.211 365.184,364.406 365.184 C 364.840 365.184,367.210 363.600,368.085 362.725 C 368.434 362.375,368.882 362.089,369.080 362.089 C 369.277 362.089,369.439 361.848,369.439 361.554 C 369.439 361.259,369.787 360.928,370.213 360.816 C 370.638 360.705,370.986 360.337,370.986 359.998 C 370.986 359.658,371.291 359.379,371.663 359.377 C 372.504 359.371,379.884 352.014,379.884 351.181 C 379.884 350.847,380.232 350.483,380.658 350.371 C 381.083 350.260,381.431 349.912,381.431 349.598 C 381.431 349.284,381.779 348.935,382.205 348.824 C 382.631 348.713,382.979 348.344,382.979 348.005 C 382.979 347.666,383.123 347.389,383.300 347.389 C 383.477 347.389,384.207 346.475,384.922 345.358 C 385.637 344.241,386.450 343.188,386.728 343.018 C 387.006 342.847,387.234 342.479,387.234 342.199 C 387.234 341.919,387.582 341.248,388.008 340.707 C 388.433 340.166,388.781 339.446,388.781 339.107 C 388.781 338.768,389.035 338.491,389.344 338.491 C 389.681 338.491,390.009 337.948,390.161 337.137 C 390.301 336.393,390.638 335.783,390.911 335.783 C 391.495 335.783,391.876 334.931,391.876 333.624 C 391.876 333.063,392.102 332.689,392.439 332.689 C 392.778 332.689,393.105 332.139,393.261 331.304 C 393.404 330.542,393.760 329.827,394.053 329.715 C 394.345 329.603,394.584 329.034,394.584 328.451 C 394.584 327.868,394.932 326.990,395.358 326.499 C 395.876 325.902,396.132 325.052,396.132 323.925 C 396.132 322.746,396.292 322.244,396.670 322.244 C 397.366 322.244,397.679 321.394,397.679 319.504 C 397.679 318.504,397.942 317.725,398.453 317.215 C 399.068 316.600,399.226 315.925,399.226 313.926 C 399.226 312.508,399.395 311.412,399.613 311.412 C 399.870 311.412,400.000 271.309,400.000 191.876 C 400.000 112.444,399.870 72.340,399.613 72.340 C 399.400 72.340,399.226 71.406,399.226 70.265 C 399.226 68.831,399.004 67.904,398.507 67.267 C 398.100 66.745,397.703 65.440,397.592 64.261 C 397.463 62.890,397.180 62.057,396.764 61.824 C 396.345 61.590,396.132 60.954,396.132 59.942 C 396.132 59.102,395.985 58.414,395.807 58.414 C 395.338 58.414,394.584 56.606,394.584 55.482 C 394.584 54.954,394.340 54.428,394.042 54.313 C 393.744 54.199,393.386 53.499,393.247 52.758 C 393.108 52.016,392.760 51.320,392.473 51.210 C 392.187 51.100,391.840 50.413,391.703 49.683 C 391.555 48.894,391.226 48.356,390.892 48.356 C 390.549 48.356,390.329 47.977,390.329 47.389 C 390.329 46.857,389.998 46.091,389.595 45.687 C 389.191 45.283,388.736 44.370,388.584 43.656 C 388.279 42.219,387.379 41.006,386.620 41.006 C 386.348 41.006,386.010 40.640,385.868 40.194 C 385.726 39.747,385.279 39.008,384.875 38.550 C 383.234 36.693,382.979 36.347,382.979 35.980 C 382.979 35.769,382.631 35.379,382.205 35.113 C 381.779 34.848,381.431 34.426,381.431 34.177 C 381.431 33.063,368.352 20.116,367.227 20.116 C 366.954 20.116,366.389 19.811,365.971 19.439 C 365.552 19.067,364.775 18.370,364.244 17.892 C 363.712 17.413,363.108 17.021,362.900 17.021 C 362.693 17.021,361.947 16.488,361.242 15.836 C 360.538 15.183,359.396 14.409,358.704 14.114 C 358.013 13.820,357.447 13.396,357.447 13.173 C 357.447 12.949,357.126 12.766,356.733 12.766 C 356.341 12.766,355.704 12.418,355.319 11.992 C 354.934 11.567,354.306 11.219,353.924 11.219 C 353.542 11.219,353.091 10.991,352.921 10.714 C 352.420 9.897,350.016 8.596,348.479 8.312 C 347.696 8.167,346.962 7.804,346.847 7.505 C 346.733 7.207,346.327 6.963,345.945 6.963 C 345.562 6.963,344.600 6.615,343.806 6.190 C 343.012 5.764,341.878 5.416,341.287 5.416 C 340.689 5.416,339.916 5.072,339.548 4.642 C 339.184 4.217,338.419 3.868,337.849 3.868 C 337.278 3.868,336.480 3.569,336.076 3.203 C 335.567 2.742,334.483 2.491,332.563 2.387 C 330.710 2.288,329.549 2.027,329.070 1.603 C 328.559 1.150,327.417 0.928,325.105 0.831 C 323.318 0.756,321.857 0.538,321.857 0.347 C 321.857 0.143,271.374 0.000,199.226 0.000 C 117.730 0.000,76.596 0.130,76.596 0.387 M48.891 3.652 C 48.439 4.830,48.923 5.607,50.183 5.730 C 51.454 5.853,52.310 4.559,51.658 3.504 C 51.280 2.892,49.139 3.008,48.891 3.652 M1.617 53.061 C 1.779 54.751,2.901 54.869,2.901 53.197 C 2.901 52.387,2.691 52.001,2.197 51.906 C 1.612 51.793,1.514 51.988,1.617 53.061 M308.864 68.824 C 309.750 69.748,309.999 70.456,310.262 72.789 C 310.437 74.351,310.854 76.151,311.188 76.789 C 311.521 77.427,311.795 78.295,311.796 78.716 C 311.798 79.137,312.154 80.397,312.587 81.515 C 313.021 82.632,313.746 84.551,314.198 85.777 C 316.518 92.062,319.548 96.706,324.755 101.956 C 327.439 104.662,331.266 107.528,334.043 108.911 C 334.681 109.229,335.464 109.635,335.783 109.813 C 336.354 110.132,338.032 110.902,341.693 112.526 C 342.709 112.977,343.841 113.352,344.208 113.359 C 344.574 113.367,345.571 113.709,346.422 114.120 C 347.273 114.531,348.491 114.874,349.130 114.883 C 349.768 114.891,350.780 115.154,351.379 115.466 C 351.978 115.779,353.370 116.143,354.474 116.277 C 357.119 116.597,361.401 117.891,361.778 118.485 C 362.940 120.313,360.712 122.367,357.060 122.834 C 355.890 122.984,354.653 123.253,354.311 123.432 C 353.970 123.612,352.497 123.949,351.038 124.182 C 349.579 124.415,348.166 124.788,347.898 125.010 C 347.630 125.233,346.840 125.561,346.142 125.740 C 343.121 126.513,338.298 128.539,335.590 130.171 C 334.739 130.684,333.781 131.233,333.462 131.390 C 328.388 133.889,318.537 144.815,315.725 151.064 C 315.246 152.128,314.543 153.694,314.162 154.545 C 313.782 155.397,313.094 156.924,312.634 157.941 C 312.175 158.957,311.798 160.089,311.796 160.455 C 311.795 160.822,311.534 161.620,311.217 162.229 C 310.899 162.838,310.464 164.405,310.250 165.711 C 309.541 170.036,308.200 172.534,306.586 172.534 C 305.388 172.534,304.103 170.945,303.840 169.138 C 303.694 168.133,303.350 166.702,303.077 165.957 C 302.804 165.213,302.480 163.887,302.358 163.011 C 302.235 162.134,301.873 160.916,301.553 160.303 C 301.234 159.689,300.971 158.973,300.970 158.712 C 300.962 157.151,295.672 146.678,294.047 145.007 C 293.704 144.654,293.075 143.899,292.650 143.329 C 288.392 137.622,280.614 131.812,272.340 128.158 C 271.383 127.735,269.797 127.014,268.816 126.557 C 267.836 126.100,266.643 125.725,266.167 125.725 C 265.691 125.725,264.752 125.483,264.082 125.187 C 262.958 124.691,260.122 123.903,256.286 123.020 C 255.435 122.824,254.086 122.657,253.288 122.647 C 250.754 122.618,249.224 119.766,250.967 118.321 C 251.903 117.545,255.099 116.552,257.604 116.257 C 258.754 116.122,260.182 115.760,260.776 115.453 C 261.371 115.145,262.344 114.888,262.940 114.880 C 263.536 114.873,264.720 114.531,265.571 114.120 C 266.422 113.709,267.466 113.366,267.892 113.357 C 268.317 113.348,269.112 113.108,269.658 112.823 C 270.204 112.538,271.162 112.180,271.786 112.026 C 272.991 111.730,275.782 110.391,278.337 108.883 C 279.188 108.381,280.278 107.790,280.760 107.571 C 281.560 107.206,283.869 105.688,284.333 105.221 C 284.439 105.114,285.222 104.555,286.074 103.978 C 289.034 101.970,296.325 93.306,296.325 91.795 C 296.325 91.660,296.560 91.275,296.848 90.940 C 297.843 89.776,300.967 83.237,300.967 82.315 C 300.967 82.030,301.223 81.432,301.535 80.986 C 301.847 80.540,302.220 79.414,302.362 78.482 C 302.505 77.551,302.842 76.352,303.111 75.817 C 303.380 75.282,303.727 73.977,303.881 72.916 C 304.574 68.163,306.621 66.482,308.864 68.824 M0.000 71.567 C 0.000 72.310,0.757 72.615,1.286 72.086 C 1.579 71.793,0.847 70.793,0.339 70.793 C 0.153 70.793,0.000 71.141,0.000 71.567 M216.308 97.762 C 216.615 98.017,217.594 98.342,218.484 98.484 C 219.374 98.626,220.300 98.982,220.543 99.275 C 220.786 99.567,221.198 99.807,221.460 99.807 C 221.721 99.807,223.049 100.652,224.410 101.684 C 237.232 111.410,230.705 134.331,214.581 136.200 C 210.813 136.637,80.818 136.626,76.294 136.189 C 69.761 135.557,60.348 127.976,60.348 123.347 C 60.348 123.143,59.980 122.167,59.531 121.181 C 58.615 119.171,58.595 113.011,59.500 112.105 C 59.754 111.852,59.961 111.388,59.961 111.075 C 59.961 107.073,66.696 100.261,72.727 98.162 C 75.485 97.203,215.165 96.813,216.308 97.762 M268.564 181.315 C 276.990 185.886,281.806 196.506,278.530 203.288 C 278.119 204.139,277.777 205.217,277.769 205.683 C 277.762 206.149,277.587 206.635,277.380 206.763 C 277.173 206.891,276.715 207.603,276.363 208.345 C 275.539 210.081,272.409 213.276,270.522 214.307 C 269.714 214.749,268.269 215.551,267.311 216.089 C 263.184 218.409,267.921 218.301,169.439 218.328 C 67.881 218.357,75.086 218.565,69.680 215.448 C 61.974 211.005,56.526 199.922,59.369 194.471 C 59.679 193.877,60.044 192.795,60.181 192.067 C 60.317 191.339,60.672 190.542,60.969 190.295 C 61.266 190.049,61.509 189.660,61.509 189.432 C 61.509 187.509,66.319 182.914,70.406 180.933 C 73.310 179.525,65.543 179.623,170.793 179.659 L 265.571 179.691 268.564 181.315 M313.196 260.722 C 314.870 261.140,316.299 261.662,316.372 261.882 C 316.445 262.102,316.805 262.282,317.171 262.282 C 319.107 262.282,323.915 266.747,325.589 270.098 C 328.030 274.987,328.142 275.454,327.992 280.164 C 327.913 282.655,327.660 284.841,327.416 285.145 C 327.176 285.443,326.855 286.095,326.702 286.593 C 325.742 289.723,318.299 297.099,316.102 297.099 C 315.745 297.099,315.022 297.403,314.496 297.776 C 313.590 298.417,307.207 298.453,193.617 298.453 L 73.694 298.453 70.745 296.977 C 63.193 293.197,58.563 286.122,58.887 278.855 C 58.969 277.012,59.228 275.271,59.464 274.986 C 59.699 274.701,60.013 273.821,60.161 273.031 C 60.308 272.241,60.672 271.393,60.969 271.146 C 61.266 270.900,61.509 270.511,61.509 270.283 C 61.509 268.684,65.772 264.296,68.770 262.809 C 69.891 262.252,70.889 261.666,70.989 261.505 C 71.088 261.344,72.158 261.089,73.365 260.938 C 74.573 260.787,75.924 260.517,76.368 260.337 C 78.362 259.531,309.935 259.907,313.196 260.722 M1.708 318.127 C 1.357 319.043,1.690 320.116,2.326 320.116 C 2.704 320.116,2.901 319.728,2.901 318.988 C 2.901 317.765,2.076 317.169,1.708 318.127 M-0.000 329.235 C -0.000 330.527,0.122 330.788,0.677 330.682 C 1.496 330.526,1.786 328.993,1.143 328.219 C 0.358 327.272,0.000 327.591,-0.000 329.235 M14.873 345.875 C 14.535 346.421,15.281 347.167,15.827 346.829 C 16.441 346.450,16.341 345.455,15.690 345.455 C 15.384 345.455,15.016 345.644,14.873 345.875 M48.903 378.476 C 48.391 379.810,48.896 380.851,50.055 380.851 C 51.433 380.851,52.225 379.813,51.603 378.820 C 51.052 377.940,49.200 377.704,48.903 378.476 " stroke="none" fill="#04233b" fill-rule="evenodd"></path><path id="path2" d="M305.680 70.212 C 305.438 70.744,304.972 72.354,304.644 73.790 C 299.918 94.517,287.875 107.935,268.279 114.308 C 263.230 115.950,260.827 116.610,257.060 117.391 C 250.401 118.771,249.235 121.041,254.773 121.842 C 280.357 125.546,298.897 142.140,304.084 165.978 C 305.493 172.450,307.583 173.201,308.702 167.636 C 313.575 143.395,329.240 127.879,354.352 122.419 C 359.857 121.222,360.542 120.949,360.542 119.956 C 360.542 118.871,359.779 118.448,356.644 117.794 C 328.318 111.887,313.664 97.979,309.077 72.649 C 308.442 69.138,306.729 67.910,305.680 70.212 M308.126 72.244 C 308.253 73.042,308.535 74.391,308.753 75.242 C 308.971 76.093,309.391 77.747,309.687 78.917 C 315.022 100.026,330.037 113.137,354.647 118.176 C 359.730 119.216,360.429 120.306,356.480 121.033 C 352.639 121.740,344.507 123.999,343.714 124.579 C 343.501 124.735,342.718 124.992,341.973 125.150 C 338.151 125.962,329.365 131.432,324.632 135.946 C 317.116 143.113,309.338 157.491,308.130 166.448 C 307.982 167.541,307.511 168.723,306.974 169.348 L 306.067 170.402 305.806 168.857 C 305.663 168.007,305.299 166.414,304.997 165.318 C 304.696 164.221,304.449 163.029,304.449 162.668 C 304.449 162.308,304.198 161.464,303.893 160.793 C 303.587 160.123,302.865 158.183,302.289 156.481 C 299.986 149.679,294.166 141.044,288.818 136.495 C 281.844 130.562,278.340 128.492,268.279 124.362 C 267.640 124.100,265.203 123.408,262.863 122.825 C 260.522 122.241,258.433 121.634,258.221 121.476 C 258.008 121.318,256.808 121.087,255.554 120.964 C 251.605 120.577,252.289 119.120,256.779 118.355 C 261.252 117.594,272.434 114.050,276.228 112.192 C 284.216 108.278,291.358 102.566,295.282 96.952 C 296.281 95.523,297.099 94.283,297.099 94.196 C 297.099 94.109,297.551 93.378,298.103 92.570 C 299.797 90.095,302.350 84.698,303.463 81.238 C 304.045 79.429,304.753 77.253,305.036 76.402 C 305.320 75.551,305.672 74.072,305.818 73.114 C 306.267 70.188,307.712 69.643,308.126 72.244 M72.838 99.205 C 53.378 105.312,57.042 133.344,77.563 135.357 C 83.159 135.906,208.826 135.908,213.540 135.360 C 231.853 133.227,236.594 108.640,220.288 100.363 L 217.286 98.839 145.877 98.767 C 87.588 98.707,74.169 98.788,72.838 99.205 M217.602 100.140 C 234.406 105.309,232.380 131.742,214.986 134.258 C 211.871 134.709,81.042 134.714,76.391 134.264 C 58.275 132.509,55.263 107.296,72.340 100.353 L 74.468 99.488 144.874 99.457 C 212.273 99.427,215.380 99.456,217.602 100.140 M75.016 180.668 C 64.150 181.949,56.708 194.977,61.247 204.771 C 65.728 214.438,70.249 216.641,86.460 217.059 C 102.735 217.479,255.855 217.415,260.348 216.987 C 279.825 215.131,284.770 190.182,267.311 181.849 L 264.410 180.464 170.986 180.416 C 119.603 180.390,76.417 180.503,75.016 180.668 M267.546 182.859 C 269.943 184.113,274.275 187.743,274.275 188.500 C 274.275 188.728,274.536 189.203,274.856 189.556 C 279.832 195.055,277.107 207.475,269.799 212.593 C 264.153 216.548,272.376 216.248,169.829 216.248 C 65.835 216.248,73.185 216.557,67.652 211.947 C 56.841 202.938,59.857 185.704,72.921 181.838 C 73.585 181.641,114.903 181.522,169.632 181.560 L 265.184 181.625 267.546 182.859 M76.015 261.392 C 67.223 262.558,61.287 268.761,59.778 278.359 C 58.665 285.441,66.685 295.890,74.301 297.279 C 76.037 297.596,306.402 297.786,310.445 297.474 C 331.027 295.886,332.517 265.365,312.201 261.512 C 310.243 261.140,78.797 261.023,76.015 261.392 M312.418 262.503 C 321.318 264.550,326.450 271.359,326.020 280.546 C 325.924 282.613,325.665 284.527,325.445 284.802 C 325.226 285.076,324.913 285.735,324.750 286.267 C 323.942 288.901,319.411 293.397,315.696 295.250 L 313.153 296.518 193.586 296.518 L 74.018 296.518 71.922 295.570 C 56.016 288.372,57.726 266.283,74.468 262.690 C 78.769 261.767,308.434 261.587,312.418 262.503 " stroke="none" fill="#348b94" fill-rule="evenodd"></path><path id="path3" d="M305.706 69.342 C 305.268 69.892,304.970 70.827,303.333 76.789 C 301.293 84.220,299.303 88.579,294.975 95.101 C 287.859 105.824,274.950 113.275,256.956 117.046 C 255.197 117.415,253.834 117.793,253.927 117.886 C 254.486 118.444,268.237 114.628,273.888 112.347 C 275.698 111.616,281.069 108.626,283.752 106.855 C 293.544 100.394,301.420 87.930,304.644 73.790 C 305.737 68.997,308.529 67.077,308.749 70.967 C 308.784 71.590,308.831 71.619,308.967 71.103 C 309.420 69.383,306.800 67.968,305.706 69.342 M309.121 72.563 C 309.062 74.118,312.763 86.205,313.173 85.796 C 313.249 85.720,312.776 84.107,312.123 82.212 C 311.470 80.317,310.534 77.190,310.044 75.263 C 309.553 73.336,309.138 72.122,309.121 72.563 M313.571 87.041 C 314.345 89.886,317.711 95.400,321.514 100.054 C 328.311 108.372,340.164 114.357,356.644 117.794 C 359.779 118.448,360.542 118.871,360.542 119.956 C 360.542 120.949,359.857 121.222,354.352 122.419 C 338.062 125.961,326.849 132.793,318.699 144.144 C 316.609 147.054,313.117 153.478,313.445 153.807 C 313.531 153.892,314.404 152.344,315.386 150.367 C 318.150 144.798,323.036 138.735,328.045 134.654 C 335.179 128.844,343.400 125.155,354.510 122.781 C 360.450 121.512,361.890 120.663,360.834 119.053 C 360.421 118.422,359.683 117.991,358.726 117.820 C 336.755 113.892,322.710 104.888,315.241 89.942 C 314.177 87.814,313.426 86.509,313.571 87.041 M72.852 98.816 C 63.161 101.846,57.030 113.004,60.298 121.663 C 63.530 130.226,69.413 135.175,76.822 135.563 L 80.271 135.743 76.814 135.357 C 57.991 133.254,53.723 108.473,70.741 100.095 L 73.291 98.839 144.673 98.643 L 216.054 98.447 145.261 98.379 C 87.946 98.324,74.160 98.407,72.852 98.816 M217.709 99.184 C 228.281 102.682,233.408 114.945,228.370 124.687 C 228.051 125.305,227.966 125.701,228.183 125.567 C 229.787 124.576,231.016 116.670,230.224 112.440 C 229.038 106.109,223.009 99.670,217.500 98.851 L 216.054 98.636 217.709 99.184 M251.704 118.696 C 250.097 120.472,251.208 121.713,254.876 122.241 C 256.077 122.414,257.582 122.664,258.221 122.795 C 259.291 123.017,259.309 123.004,258.449 122.629 C 257.937 122.406,256.385 122.063,255.002 121.867 C 251.445 121.363,250.284 119.631,252.716 118.457 C 253.319 118.166,253.392 118.033,252.961 118.015 C 252.622 118.000,252.056 118.307,251.704 118.696 M260.155 123.352 C 260.580 123.538,261.538 123.801,262.282 123.936 C 263.212 124.105,263.394 124.076,262.863 123.843 C 262.437 123.657,261.480 123.394,260.735 123.259 C 259.806 123.091,259.624 123.120,260.155 123.352 M266.344 125.096 C 286.746 131.926,299.162 145.597,303.731 166.262 C 304.832 171.240,305.890 172.578,307.688 171.263 C 308.299 170.816,310.505 162.987,310.126 162.608 C 309.944 162.426,309.262 164.832,308.700 167.636 C 307.586 173.202,305.493 172.449,304.084 165.978 C 300.987 151.742,294.464 141.405,283.634 133.568 C 278.082 129.550,268.996 125.090,264.990 124.417 C 264.246 124.292,264.855 124.597,266.344 125.096 M226.772 127.429 C 223.770 131.810,219.145 134.703,214.120 135.341 C 212.196 135.586,211.860 135.697,212.959 135.725 C 216.325 135.811,221.372 133.818,223.919 131.398 C 225.381 130.008,228.023 126.540,227.794 126.311 C 227.710 126.228,227.251 126.731,226.772 127.429 M155.590 135.684 C 157.441 135.755,160.574 135.755,162.553 135.685 C 164.532 135.615,163.017 135.557,159.188 135.556 C 155.358 135.556,153.739 135.614,155.590 135.684 M99.495 136.072 C 101.770 136.140,105.600 136.140,108.006 136.072 C 110.411 136.004,108.549 135.949,103.868 135.948 C 99.188 135.948,97.220 136.004,99.495 136.072 M114.804 136.064 C 115.499 136.150,116.544 136.148,117.125 136.060 C 117.706 135.972,117.137 135.901,115.861 135.903 C 114.584 135.905,114.109 135.978,114.804 136.064 M121.567 136.070 C 123.003 136.145,125.353 136.145,126.789 136.070 C 128.225 135.996,127.050 135.935,124.178 135.935 C 121.306 135.935,120.131 135.996,121.567 136.070 M133.172 136.071 C 134.821 136.143,137.519 136.143,139.168 136.071 C 140.817 135.998,139.468 135.939,136.170 135.939 C 132.872 135.939,131.523 135.998,133.172 136.071 M182.108 136.073 C 187.268 136.134,195.711 136.134,200.870 136.073 C 206.030 136.012,201.809 135.962,191.489 135.962 C 181.170 135.962,176.949 136.012,182.108 136.073 M311.865 157.157 C 311.224 158.699,310.589 160.484,310.454 161.122 C 310.320 161.760,310.802 160.803,311.527 158.994 C 312.252 157.186,312.976 155.401,313.137 155.029 C 313.298 154.657,313.340 154.352,313.230 154.352 C 313.121 154.352,312.507 155.614,311.865 157.157 M97.805 180.174 C 108.726 180.231,126.482 180.231,137.264 180.174 C 148.045 180.117,139.110 180.070,117.408 180.070 C 95.706 180.070,86.885 180.117,97.805 180.174 M175.338 180.174 C 185.285 180.231,201.562 180.231,211.509 180.174 C 221.456 180.117,213.317 180.070,193.424 180.070 C 173.530 180.070,165.392 180.117,175.338 180.174 M237.814 180.174 C 242.336 180.236,249.734 180.236,254.255 180.174 C 258.777 180.112,255.077 180.061,246.035 180.061 C 236.992 180.061,233.293 180.112,237.814 180.174 M70.572 181.572 C 65.821 183.848,60.311 190.218,60.357 193.379 C 60.362 193.723,60.762 193.042,61.246 191.867 C 63.774 185.723,69.143 181.357,75.016 180.670 L 77.563 180.372 75.424 180.322 C 73.726 180.281,72.727 180.538,70.572 181.572 M263.830 180.650 C 264.574 180.809,265.532 181.063,265.957 181.212 C 266.464 181.391,266.398 181.280,265.764 180.891 C 265.232 180.565,264.275 180.312,263.636 180.329 C 262.496 180.359,262.499 180.365,263.830 180.650 M268.517 182.397 C 283.200 190.046,279.929 212.756,263.591 216.591 C 262.376 216.876,262.286 216.951,263.123 216.982 C 264.703 217.042,270.308 213.976,272.747 211.718 C 281.929 203.218,279.753 187.696,268.588 182.057 C 267.907 181.713,267.211 181.439,267.040 181.449 C 266.870 181.459,267.535 181.886,268.517 182.397 M59.569 196.198 C 59.316 197.332,59.189 198.694,59.289 199.226 C 59.432 199.994,59.480 199.914,59.524 198.839 C 59.554 198.095,59.765 196.816,59.992 195.999 C 60.219 195.181,60.320 194.427,60.217 194.324 C 60.114 194.221,59.823 195.065,59.569 196.198 M59.743 201.547 C 60.766 207.885,68.899 216.120,74.855 216.848 C 76.200 217.012,76.130 216.959,74.315 216.443 C 68.179 214.694,62.779 209.384,60.451 202.808 C 59.905 201.266,59.615 200.749,59.743 201.547 M80.754 217.310 C 83.148 217.378,87.065 217.378,89.458 217.310 C 91.852 217.242,89.894 217.187,85.106 217.187 C 80.319 217.187,78.361 217.242,80.754 217.310 M129.110 217.294 C 129.589 217.386,130.372 217.386,130.851 217.294 C 131.330 217.202,130.938 217.127,129.981 217.127 C 129.023 217.127,128.632 217.202,129.110 217.294 M140.716 217.294 C 141.194 217.386,141.978 217.386,142.456 217.294 C 142.935 217.202,142.544 217.127,141.586 217.127 C 140.629 217.127,140.237 217.202,140.716 217.294 M196.026 217.300 C 196.713 217.386,197.932 217.387,198.734 217.304 C 199.537 217.220,198.975 217.150,197.485 217.148 C 195.996 217.147,195.339 217.215,196.026 217.300 M220.803 217.305 C 221.713 217.387,223.106 217.386,223.898 217.302 C 224.690 217.219,223.946 217.152,222.244 217.154 C 220.542 217.155,219.893 217.223,220.803 217.305 M235.687 217.298 C 236.272 217.387,237.229 217.387,237.814 217.298 C 238.399 217.210,237.921 217.137,236.750 217.137 C 235.580 217.137,235.102 217.210,235.687 217.298 M239.942 217.298 C 240.527 217.387,241.485 217.387,242.070 217.298 C 242.655 217.210,242.176 217.137,241.006 217.137 C 239.836 217.137,239.357 217.210,239.942 217.298 M258.897 217.298 C 259.483 217.387,260.440 217.387,261.025 217.298 C 261.610 217.210,261.132 217.137,259.961 217.137 C 258.791 217.137,258.312 217.210,258.897 217.298 M103.191 217.681 C 103.670 217.773,104.454 217.773,104.932 217.681 C 105.411 217.589,105.019 217.513,104.062 217.513 C 103.104 217.513,102.713 217.589,103.191 217.681 M109.768 217.695 C 111.310 217.769,113.835 217.769,115.377 217.695 C 116.920 217.622,115.658 217.562,112.573 217.562 C 109.487 217.562,108.225 217.622,109.768 217.695 M124.081 217.681 C 124.560 217.773,125.343 217.773,125.822 217.681 C 126.301 217.589,125.909 217.513,124.952 217.513 C 123.994 217.513,123.603 217.589,124.081 217.681 M177.853 217.696 C 179.608 217.768,182.481 217.768,184.236 217.696 C 185.991 217.624,184.555 217.566,181.044 217.566 C 177.534 217.566,176.098 217.624,177.853 217.696 M249.596 217.695 C 251.023 217.769,253.460 217.769,255.012 217.696 C 256.564 217.622,255.397 217.561,252.418 217.561 C 249.439 217.560,248.169 217.620,249.596 217.695 M194.971 261.119 C 303.310 261.300,312.893 261.367,314.351 261.954 C 320.427 264.404,323.268 267.059,325.608 272.476 C 326.081 273.572,326.475 274.221,326.483 273.918 C 326.565 271.024,321.598 264.969,317.503 262.972 C 312.657 260.607,319.598 260.727,193.643 260.829 L 77.176 260.923 194.971 261.119 M72.340 261.865 C 63.518 264.774,57.853 274.250,59.805 282.833 C 60.145 284.326,60.496 285.474,60.586 285.384 C 60.677 285.294,60.475 284.034,60.139 282.585 C 57.928 273.051,65.630 262.769,76.015 261.392 C 77.105 261.247,77.094 261.236,75.822 261.201 C 75.077 261.180,73.511 261.479,72.340 261.865 M326.692 279.414 C 326.692 288.977,319.837 296.701,310.638 297.503 L 307.737 297.756 310.182 297.814 C 316.522 297.965,324.635 291.527,326.649 284.746 C 327.278 282.627,327.473 276.658,326.955 275.352 C 326.811 274.987,326.692 276.815,326.692 279.414 M60.735 286.025 C 60.735 288.611,70.014 297.242,72.620 297.080 C 72.785 297.070,71.820 296.495,70.475 295.803 C 67.525 294.285,63.778 290.717,62.202 287.924 C 61.186 286.125,60.735 285.541,60.735 286.025 M73.694 297.509 C 74.120 297.679,75.600 297.816,76.983 297.815 C 80.155 297.810,79.601 297.600,75.822 297.374 C 74.177 297.275,73.256 297.334,73.694 297.509 M90.839 297.775 C 95.800 297.837,103.808 297.837,108.634 297.775 C 113.460 297.714,109.400 297.664,99.613 297.664 C 89.826 297.664,85.878 297.714,90.839 297.775 M128.337 297.773 C 130.092 297.845,132.964 297.845,134.720 297.773 C 136.475 297.702,135.039 297.643,131.528 297.643 C 128.017 297.643,126.581 297.702,128.337 297.773 M138.980 297.763 C 139.568 297.852,140.439 297.850,140.914 297.758 C 141.390 297.666,140.909 297.593,139.845 297.596 C 138.781 297.599,138.392 297.674,138.980 297.763 M143.230 297.752 C 143.603 297.849,144.212 297.849,144.584 297.752 C 144.956 297.655,144.652 297.575,143.907 297.575 C 143.162 297.575,142.858 297.655,143.230 297.752 M150.603 297.775 C 153.542 297.841,158.242 297.840,161.048 297.774 C 163.855 297.708,161.451 297.655,155.706 297.655 C 149.961 297.655,147.665 297.709,150.603 297.775 M182.129 297.774 C 184.321 297.843,187.803 297.843,189.866 297.774 C 191.929 297.704,190.135 297.648,185.880 297.648 C 181.625 297.648,179.937 297.705,182.129 297.774 M204.932 297.775 C 208.603 297.839,214.608 297.839,218.279 297.775 C 221.949 297.711,218.946 297.659,211.605 297.659 C 204.265 297.659,201.262 297.711,204.932 297.775 M228.354 297.773 C 230.013 297.846,232.624 297.846,234.157 297.772 C 235.690 297.699,234.333 297.640,231.141 297.640 C 227.950 297.641,226.696 297.701,228.354 297.773 M237.819 297.759 C 238.300 297.852,238.996 297.848,239.366 297.751 C 239.736 297.654,239.342 297.579,238.491 297.583 C 237.640 297.587,237.338 297.667,237.819 297.759 M245.551 297.769 C 246.456 297.850,247.935 297.850,248.839 297.769 C 249.744 297.687,249.004 297.621,247.195 297.621 C 245.387 297.621,244.647 297.687,245.551 297.769 M262.379 297.774 C 264.666 297.843,268.409 297.843,270.696 297.774 C 272.984 297.706,271.112 297.650,266.538 297.650 C 261.963 297.650,260.092 297.706,262.379 297.774 M292.364 297.759 C 292.845 297.852,293.542 297.848,293.912 297.751 C 294.282 297.654,293.888 297.579,293.037 297.583 C 292.186 297.587,291.883 297.667,292.364 297.759 M299.130 298.139 C 299.502 298.236,300.111 298.236,300.484 298.139 C 300.856 298.042,300.551 297.962,299.807 297.962 C 299.062 297.962,298.757 298.042,299.130 298.139 " stroke="none" fill="#257076" fill-rule="evenodd"></path><path id="path4" d="M305.560 69.149 C 305.079 69.762,305.093 69.776,305.702 69.298 C 306.073 69.008,306.890 68.845,307.520 68.938 C 308.149 69.030,308.575 68.963,308.467 68.789 C 308.111 68.211,306.100 68.461,305.560 69.149 M309.157 70.986 C 309.163 71.412,309.307 72.195,309.478 72.727 L 309.787 73.694 309.799 72.727 C 309.805 72.195,309.661 71.412,309.478 70.986 L 309.145 70.213 309.157 70.986 M313.374 85.687 C 313.374 85.899,313.622 86.509,313.926 87.041 C 314.231 87.573,314.479 87.834,314.479 87.621 C 314.479 87.408,314.231 86.799,313.926 86.267 C 313.622 85.735,313.374 85.474,313.374 85.687 M315.549 90.711 C 315.903 91.453,316.262 91.991,316.345 91.907 C 316.522 91.730,315.348 89.362,315.083 89.362 C 314.986 89.362,315.196 89.969,315.549 90.711 M109.768 98.162 C 129.183 98.218,160.953 98.218,180.368 98.162 C 199.782 98.107,183.897 98.062,145.068 98.062 C 106.238 98.062,90.353 98.107,109.768 98.162 M321.373 99.226 C 322.031 100.077,323.580 101.731,324.816 102.901 C 326.717 104.702,326.621 104.554,324.191 101.934 C 320.277 97.714,319.993 97.442,321.373 99.226 M69.923 99.641 C 68.423 100.455,68.593 100.736,70.116 99.961 C 71.574 99.219,71.832 99.027,71.341 99.048 C 71.146 99.057,70.508 99.324,69.923 99.641 M220.535 99.924 C 220.624 99.988,221.219 100.347,221.857 100.720 L 223.017 101.400 222.104 100.603 C 221.602 100.165,221.007 99.807,220.782 99.807 C 220.558 99.807,220.446 99.859,220.535 99.924 M288.193 102.622 C 287.444 103.307,286.225 104.358,285.485 104.957 C 284.357 105.870,284.432 105.847,285.946 104.817 C 287.553 103.724,290.165 101.337,289.724 101.364 C 289.631 101.370,288.942 101.936,288.193 102.622 M64.779 103.385 L 63.250 105.029 64.894 103.500 C 66.423 102.078,66.715 101.741,66.423 101.741 C 66.360 101.741,65.620 102.481,64.779 103.385 M225.442 103.312 C 226.350 104.256,227.520 105.725,228.041 106.576 C 228.563 107.427,228.995 107.924,229.001 107.679 C 229.020 107.015,226.252 103.463,224.938 102.466 C 224.161 101.875,224.323 102.147,225.442 103.312 M328.433 105.985 C 329.178 106.647,330.397 107.531,331.141 107.950 C 332.621 108.781,331.997 108.253,329.014 106.147 C 327.208 104.872,327.169 104.862,328.433 105.985 M62.378 106.480 C 61.833 107.162,60.681 109.478,60.885 109.478 C 60.979 109.478,61.494 108.694,62.029 107.737 C 62.993 106.012,63.122 105.548,62.378 106.480 M282.495 106.814 C 281.177 107.659,280.750 108.226,281.915 107.585 C 282.802 107.098,284.193 106.022,283.946 106.015 C 283.839 106.012,283.187 106.371,282.495 106.814 M229.027 108.370 C 229.020 108.505,229.268 109.201,229.579 109.917 C 229.889 110.633,230.144 110.957,230.145 110.638 C 230.147 110.081,229.055 107.866,229.027 108.370 M278.089 109.501 L 277.176 110.297 278.337 109.618 C 279.864 108.723,279.887 108.704,279.411 108.704 C 279.186 108.704,278.592 109.063,278.089 109.501 M270.986 112.780 C 270.019 113.246,269.987 113.299,270.793 113.102 C 271.889 112.834,273.121 112.206,272.534 112.215 C 272.321 112.218,271.625 112.472,270.986 112.780 M59.277 114.507 C 59.277 115.251,59.357 115.556,59.454 115.184 C 59.552 114.811,59.552 114.202,59.454 113.830 C 59.357 113.457,59.277 113.762,59.277 114.507 M345.015 114.328 C 345.731 114.639,346.428 114.887,346.563 114.880 C 347.066 114.852,344.851 113.761,344.294 113.762 C 343.975 113.763,344.299 114.018,345.015 114.328 M230.672 116.634 C 230.674 117.698,230.750 118.088,230.839 117.500 C 230.927 116.911,230.925 116.041,230.833 115.565 C 230.741 115.089,230.669 115.571,230.672 116.634 M254.739 117.215 C 253.753 117.638,254.770 117.638,256.093 117.215 C 256.870 116.966,256.908 116.903,256.286 116.894 C 255.861 116.887,255.164 117.032,254.739 117.215 M355.899 117.215 C 357.222 117.638,358.239 117.638,357.253 117.215 C 356.828 117.032,356.132 116.887,355.706 116.894 C 355.084 116.903,355.122 116.966,355.899 117.215 M251.141 118.453 C 249.930 119.664,251.206 122.274,252.987 122.229 C 253.312 122.220,253.013 121.968,252.321 121.667 C 250.896 121.048,250.650 119.861,251.704 118.696 C 252.404 117.922,251.893 117.701,251.141 118.453 M360.759 118.937 C 361.562 120.163,360.841 121.244,358.832 121.828 C 358.128 122.032,357.938 122.188,358.368 122.209 C 360.729 122.322,362.702 119.324,360.901 118.361 C 360.117 117.941,360.114 117.953,360.759 118.937 M254.453 122.517 C 254.934 122.610,255.631 122.606,256.001 122.510 C 256.371 122.413,255.977 122.337,255.126 122.341 C 254.275 122.346,253.972 122.425,254.453 122.517 M258.994 123.404 C 259.420 123.587,260.029 123.737,260.348 123.737 C 260.714 123.737,260.642 123.614,260.155 123.404 C 259.729 123.221,259.120 123.072,258.801 123.072 C 258.435 123.072,258.507 123.195,258.994 123.404 M351.644 123.404 C 350.867 123.653,350.829 123.716,351.451 123.725 C 351.876 123.732,352.573 123.587,352.998 123.404 C 353.984 122.981,352.967 122.981,351.644 123.404 M228.511 125.029 C 228.136 125.682,227.908 126.297,228.006 126.394 C 228.103 126.491,228.470 126.016,228.820 125.338 C 229.649 123.736,229.397 123.484,228.511 125.029 M264.603 124.934 C 264.923 125.150,265.517 125.329,265.925 125.333 C 266.915 125.340,266.606 125.119,265.184 124.801 C 264.336 124.611,264.180 124.647,264.603 124.934 M61.910 125.919 C 61.912 126.132,62.269 126.741,62.704 127.273 C 63.229 127.915,63.361 127.980,63.095 127.466 C 62.443 126.204,61.907 125.505,61.910 125.919 M342.553 126.320 C 341.915 126.612,341.654 126.853,341.973 126.855 C 342.292 126.857,342.988 126.610,343.520 126.306 C 344.743 125.606,344.090 125.616,342.553 126.320 M226.691 128.143 C 226.122 128.921,226.028 129.191,226.446 128.852 C 227.081 128.337,228.040 126.886,227.746 126.886 C 227.672 126.886,227.197 127.452,226.691 128.143 M271.954 127.628 C 272.698 128.017,273.743 128.447,274.275 128.584 C 274.807 128.720,274.306 128.394,273.161 127.859 C 270.762 126.737,269.952 126.582,271.954 127.628 M275.435 128.994 C 275.435 129.100,275.957 129.457,276.596 129.787 C 277.234 130.117,277.756 130.300,277.756 130.194 C 277.756 130.088,277.234 129.730,276.596 129.400 C 275.957 129.070,275.435 128.887,275.435 128.994 M65.377 130.561 C 66.099 131.306,66.777 131.915,66.883 131.915 C 66.989 131.915,66.486 131.306,65.764 130.561 C 65.042 129.816,64.365 129.207,64.258 129.207 C 64.152 129.207,64.655 129.816,65.377 130.561 M332.237 131.343 C 331.456 131.854,330.705 132.455,330.567 132.678 C 330.430 132.901,331.112 132.547,332.083 131.891 C 333.054 131.236,333.849 130.625,333.849 130.534 C 333.849 130.294,333.799 130.319,332.237 131.343 M221.567 133.102 C 220.769 133.523,220.116 133.954,220.116 134.060 C 220.116 134.165,220.812 133.896,221.663 133.462 C 222.515 133.028,223.211 132.589,223.211 132.487 C 223.211 132.234,223.208 132.235,221.567 133.102 M282.571 133.429 C 282.862 133.900,286.267 136.298,286.267 136.032 C 286.267 135.935,285.378 135.218,284.292 134.437 C 283.206 133.657,282.432 133.203,282.571 133.429 M325.293 137.041 C 323.921 138.370,322.221 140.242,321.516 141.199 L 320.233 142.940 321.915 141.017 C 322.841 139.960,324.642 138.089,325.919 136.861 C 327.195 135.632,328.138 134.626,328.014 134.625 C 327.890 134.624,326.665 135.711,325.293 137.041 M216.054 135.397 C 214.984 135.669,214.969 135.695,215.861 135.732 C 216.393 135.754,217.089 135.603,217.408 135.397 C 218.067 134.971,217.726 134.971,216.054 135.397 M73.985 135.663 C 74.357 135.760,74.966 135.760,75.338 135.663 C 75.711 135.566,75.406 135.486,74.662 135.486 C 73.917 135.486,73.612 135.566,73.985 135.663 M78.627 136.068 C 79.637 136.147,81.291 136.147,82.302 136.068 C 83.312 135.988,82.485 135.923,80.464 135.923 C 78.443 135.923,77.616 135.988,78.627 136.068 M87.507 136.070 C 88.934 136.144,91.371 136.145,92.923 136.071 C 94.475 135.997,93.308 135.937,90.329 135.936 C 87.350 135.935,86.080 135.996,87.507 136.070 M142.650 136.056 C 143.129 136.149,143.912 136.149,144.391 136.056 C 144.869 135.964,144.478 135.889,143.520 135.889 C 142.563 135.889,142.171 135.964,142.650 136.056 M152.683 136.073 C 156.339 136.136,162.432 136.136,166.223 136.073 C 170.013 136.010,167.021 135.958,159.574 135.958 C 152.128 135.957,149.026 136.009,152.683 136.073 M210.928 136.060 C 211.514 136.149,212.471 136.149,213.056 136.060 C 213.641 135.972,213.162 135.899,211.992 135.899 C 210.822 135.899,210.343 135.972,210.928 136.060 M288.008 137.718 C 288.839 138.569,289.606 139.265,289.712 139.265 C 289.819 139.265,289.226 138.569,288.395 137.718 C 287.564 136.867,286.797 136.170,286.690 136.170 C 286.584 136.170,287.177 136.867,288.008 137.718 M293.230 143.520 C 293.904 144.371,294.543 145.068,294.649 145.068 C 294.756 145.068,294.291 144.371,293.617 143.520 C 292.943 142.669,292.304 141.973,292.198 141.973 C 292.092 141.973,292.556 142.669,293.230 143.520 M318.314 145.358 C 317.528 146.295,316.386 148.162,316.598 148.162 C 316.694 148.162,317.302 147.379,317.948 146.422 C 319.155 144.633,319.318 144.161,318.314 145.358 M315.549 149.908 C 315.196 150.650,314.986 151.257,315.083 151.257 C 315.348 151.257,316.522 148.889,316.345 148.712 C 316.262 148.628,315.903 149.166,315.549 149.908 M310.915 160.624 C 310.562 161.726,310.338 162.692,310.417 162.770 C 310.495 162.849,310.856 162.020,311.219 160.928 C 311.581 159.837,311.805 158.872,311.716 158.783 C 311.628 158.694,311.267 159.523,310.915 160.624 M309.333 166.393 C 309.010 168.005,309.323 168.318,309.671 166.731 C 309.818 166.062,309.858 165.435,309.759 165.336 C 309.660 165.238,309.469 165.713,309.333 166.393 M304.664 170.707 C 304.955 171.469,306.322 172.337,306.674 171.985 C 306.798 171.861,306.702 171.760,306.463 171.760 C 306.223 171.760,305.661 171.368,305.214 170.890 C 304.595 170.227,304.464 170.184,304.664 170.707 M75.145 180.161 C 75.730 180.250,76.688 180.250,77.273 180.161 C 77.858 180.072,77.379 180.000,76.209 180.000 C 75.039 180.000,74.560 180.072,75.145 180.161 M262.766 180.151 C 263.138 180.248,263.748 180.248,264.120 180.151 C 264.492 180.053,264.188 179.974,263.443 179.974 C 262.698 179.974,262.394 180.053,262.766 180.151 M265.764 180.851 C 266.296 181.155,266.905 181.404,267.118 181.404 C 267.331 181.404,267.070 181.155,266.538 180.851 C 266.006 180.547,265.397 180.298,265.184 180.298 C 264.971 180.298,265.232 180.547,265.764 180.851 M69.536 181.653 C 68.036 182.466,68.206 182.747,69.729 181.972 C 71.187 181.231,71.446 181.039,70.954 181.060 C 70.759 181.068,70.121 181.335,69.536 181.653 M65.451 184.816 L 63.183 187.041 65.344 185.135 C 66.532 184.088,67.670 183.087,67.872 182.911 C 68.074 182.736,68.123 182.592,67.979 182.592 C 67.836 182.592,66.698 183.593,65.451 184.816 M270.019 182.682 C 270.126 182.789,271.257 183.693,272.534 184.690 C 274.800 186.461,274.814 186.466,273.124 184.902 C 271.797 183.674,269.064 181.719,270.019 182.682 M275.012 187.553 C 275.247 187.992,275.630 188.469,275.863 188.613 C 276.166 188.801,276.165 188.648,275.859 188.076 C 275.623 187.637,275.241 187.159,275.008 187.015 C 274.704 186.828,274.706 186.980,275.012 187.553 M276.211 189.266 C 276.210 189.427,276.557 190.208,276.983 191.001 C 277.408 191.795,277.755 192.186,277.754 191.870 C 277.752 191.554,277.405 190.774,276.983 190.135 C 276.560 189.497,276.213 189.106,276.211 189.266 M278.337 198.029 C 278.337 200.374,278.455 201.994,278.600 201.630 C 278.931 200.794,278.923 195.847,278.588 194.658 C 278.450 194.167,278.337 195.683,278.337 198.029 M59.429 195.179 C 59.296 195.525,59.203 196.098,59.221 196.453 C 59.239 196.808,59.407 196.585,59.595 195.958 C 59.960 194.737,59.831 194.132,59.429 195.179 M59.194 200.806 C 59.197 201.320,59.371 202.002,59.580 202.321 C 59.847 202.729,59.887 202.500,59.712 201.547 C 59.406 199.879,59.186 199.564,59.194 200.806 M275.720 208.223 L 275.037 209.478 275.816 208.564 C 276.480 207.787,276.834 206.957,276.499 206.966 C 276.446 206.967,276.095 207.533,275.720 208.223 M273.114 211.412 C 272.174 212.369,271.493 213.153,271.599 213.153 C 271.705 213.153,272.561 212.369,273.501 211.412 C 274.441 210.455,275.122 209.671,275.016 209.671 C 274.910 209.671,274.054 210.455,273.114 211.412 M65.377 211.799 C 66.099 212.544,66.777 213.153,66.883 213.153 C 66.989 213.153,66.486 212.544,65.764 211.799 C 65.042 211.054,64.365 210.445,64.258 210.445 C 64.152 210.445,64.655 211.054,65.377 211.799 M68.085 214.077 C 68.085 214.343,70.814 215.969,70.981 215.802 C 71.062 215.721,70.443 215.261,69.607 214.779 C 68.770 214.297,68.085 213.981,68.085 214.077 M267.892 215.113 C 267.253 215.522,266.929 215.858,267.172 215.859 C 267.414 215.860,268.024 215.518,268.526 215.100 C 269.676 214.142,269.399 214.148,267.892 215.113 M84.260 217.698 C 87.731 217.762,93.302 217.762,96.639 217.697 C 99.977 217.633,97.137 217.581,90.329 217.581 C 83.520 217.581,80.789 217.634,84.260 217.698 M119.246 217.690 C 120.044 217.773,121.349 217.773,122.147 217.690 C 122.945 217.606,122.292 217.538,120.696 217.538 C 119.101 217.538,118.448 217.606,119.246 217.690 M128.337 217.693 C 129.454 217.771,131.281 217.771,132.398 217.693 C 133.515 217.615,132.602 217.551,130.368 217.551 C 128.133 217.551,127.220 217.615,128.337 217.693 M140.499 217.697 C 143.200 217.763,147.726 217.764,150.557 217.697 C 153.389 217.631,151.180 217.577,145.648 217.577 C 140.116 217.576,137.799 217.631,140.499 217.697 M156.383 217.675 C 156.755 217.772,157.365 217.772,157.737 217.675 C 158.109 217.577,157.805 217.498,157.060 217.498 C 156.315 217.498,156.011 217.577,156.383 217.675 M161.605 217.693 C 162.722 217.771,164.550 217.771,165.667 217.693 C 166.784 217.615,165.870 217.551,163.636 217.551 C 161.402 217.551,160.488 217.615,161.605 217.693 M170.513 217.692 C 171.423 217.774,172.816 217.772,173.608 217.689 C 174.400 217.606,173.656 217.539,171.954 217.541 C 170.251 217.542,169.603 217.610,170.513 217.692 M191.220 217.697 C 193.519 217.766,197.175 217.765,199.344 217.696 C 201.513 217.628,199.632 217.572,195.164 217.572 C 190.696 217.572,188.921 217.628,191.220 217.697 M215.930 217.698 C 221.607 217.758,231.007 217.758,236.820 217.698 C 242.633 217.638,237.988 217.589,226.499 217.588 C 215.010 217.588,210.254 217.638,215.930 217.698 M258.317 217.681 C 258.796 217.773,259.579 217.773,260.058 217.681 C 260.537 217.589,260.145 217.513,259.188 217.513 C 258.230 217.513,257.838 217.589,258.317 217.681 M306.293 260.629 C 306.988 260.715,308.033 260.713,308.614 260.625 C 309.196 260.536,308.627 260.466,307.350 260.468 C 306.074 260.470,305.598 260.542,306.293 260.629 M75.532 261.002 C 75.904 261.099,76.514 261.099,76.886 261.002 C 77.258 260.904,76.954 260.825,76.209 260.825 C 75.464 260.825,75.160 260.904,75.532 261.002 M64.719 266.258 C 63.658 267.380,62.583 268.730,62.331 269.256 L 61.873 270.213 62.558 269.246 C 62.935 268.714,64.096 267.365,65.140 266.248 C 66.183 265.131,66.950 264.217,66.843 264.217 C 66.737 264.217,65.781 265.135,64.719 266.258 M321.872 265.957 C 322.822 267.021,323.912 268.327,324.293 268.859 C 324.962 269.793,324.962 269.783,324.303 268.566 C 323.928 267.872,322.838 266.567,321.882 265.664 L 320.144 264.023 321.872 265.957 M326.770 274.468 C 326.940 275.106,327.079 277.582,327.079 279.969 C 327.079 282.356,327.198 284.010,327.342 283.644 C 327.877 282.290,327.680 275.954,327.060 274.609 C 326.488 273.368,326.475 273.361,326.770 274.468 M59.215 281.657 C 59.230 282.171,59.400 282.940,59.593 283.366 C 59.837 283.905,59.872 283.670,59.707 282.592 C 59.434 280.796,59.175 280.305,59.215 281.657 M320.890 293.121 C 319.400 294.530,318.878 295.146,319.729 294.490 C 321.220 293.342,324.125 290.503,323.770 290.541 C 323.675 290.551,322.379 291.712,320.890 293.121 M67.294 294.518 C 67.825 295.201,71.227 297.117,71.844 297.081 C 72.011 297.071,71.277 296.615,70.213 296.069 C 69.149 295.522,67.933 294.790,67.512 294.443 C 66.785 293.844,66.774 293.848,67.294 294.518 M86.972 298.162 C 93.636 298.222,104.429 298.222,110.956 298.162 C 117.484 298.103,112.031 298.054,98.839 298.054 C 85.648 298.054,80.308 298.103,86.972 298.162 M167.408 298.162 C 191.504 298.217,230.933 298.217,255.029 298.162 C 279.125 298.107,259.410 298.062,211.219 298.062 C 163.027 298.062,143.312 298.107,167.408 298.162 M303.772 298.160 C 305.421 298.232,308.119 298.232,309.768 298.160 C 311.417 298.087,310.068 298.028,306.770 298.028 C 303.472 298.028,302.123 298.087,303.772 298.160 " stroke="none" fill="#1b525c" fill-rule="evenodd"></path><path id="path5" d="M305.209 68.956 C 304.313 70.407,303.862 71.883,304.209 72.229 C 304.341 72.361,304.449 72.136,304.450 71.728 C 304.453 70.225,305.902 68.472,307.141 68.472 C 308.452 68.472,309.273 69.670,309.877 72.467 L 310.225 74.081 310.100 72.032 C 309.870 68.274,306.815 66.353,305.209 68.956 M310.282 75.063 C 310.265 75.391,310.593 76.609,311.011 77.771 C 311.486 79.091,311.776 79.543,311.785 78.975 C 311.793 78.476,311.553 77.518,311.253 76.848 C 310.953 76.177,310.619 75.368,310.510 75.048 C 310.338 74.543,310.309 74.545,310.282 75.063 M302.964 76.032 C 302.717 76.575,302.527 77.315,302.542 77.678 C 302.557 78.040,302.819 77.655,303.124 76.823 C 303.755 75.100,303.643 74.543,302.964 76.032 M311.799 80.450 C 311.799 81.141,314.687 88.240,314.814 87.860 C 314.883 87.653,314.600 86.644,314.185 85.618 C 313.771 84.592,313.137 82.926,312.776 81.915 C 312.153 80.166,311.799 79.635,311.799 80.450 M301.385 81.179 C 301.155 81.609,300.968 82.190,300.970 82.470 C 300.971 82.750,301.235 82.474,301.557 81.857 C 301.878 81.241,302.065 80.660,301.972 80.567 C 301.880 80.474,301.615 80.750,301.385 81.179 M299.618 85.615 C 298.790 87.597,298.920 87.910,299.820 86.104 C 300.237 85.270,300.493 84.503,300.390 84.401 C 300.288 84.298,299.940 84.844,299.618 85.615 M297.783 89.414 C 296.719 91.353,296.617 91.518,294.215 95.164 C 291.438 99.382,288.244 102.635,284.338 105.222 C 282.635 106.351,281.616 107.322,282.979 106.518 C 288.665 103.164,294.624 96.490,298.210 89.458 C 299.288 87.345,298.939 87.309,297.783 89.414 M314.894 88.772 C 314.894 88.873,315.241 89.526,315.666 90.223 C 316.575 91.713,316.702 91.374,315.851 89.729 C 315.320 88.703,314.894 88.277,314.894 88.772 M316.441 91.774 C 316.441 92.131,318.771 95.551,319.014 95.551 C 319.263 95.551,317.660 92.844,316.962 92.083 C 316.675 91.772,316.441 91.633,316.441 91.774 M319.399 96.323 C 320.599 98.643,327.687 105.557,330.658 107.305 C 331.912 108.043,330.937 107.054,329.304 105.931 C 327.436 104.648,323.252 100.589,320.575 97.466 C 319.764 96.519,319.235 96.005,319.399 96.323 M90.844 97.485 C 81.553 97.592,73.865 97.766,73.759 97.872 C 73.652 97.979,105.747 98.066,145.081 98.066 C 192.404 98.066,216.466 97.936,216.212 97.682 C 215.804 97.274,122.128 97.127,90.844 97.485 M70.890 98.836 C 70.198 99.136,69.632 99.469,69.632 99.575 C 69.632 99.681,70.198 99.537,70.890 99.257 C 71.581 98.976,72.408 98.651,72.727 98.533 C 73.243 98.344,73.243 98.319,72.727 98.305 C 72.408 98.296,71.581 98.535,70.890 98.836 M219.559 99.214 C 220.541 99.957,221.116 99.965,220.503 99.226 C 220.238 98.907,219.748 98.646,219.414 98.646 C 218.929 98.646,218.957 98.759,219.559 99.214 M68.122 100.228 C 66.977 100.685,61.889 105.807,61.913 106.477 C 61.922 106.745,62.227 106.556,62.590 106.059 C 64.267 103.761,65.954 102.090,67.530 101.166 C 68.474 100.613,69.246 100.081,69.246 99.984 C 69.246 99.771,69.283 99.763,68.122 100.228 M222.437 100.774 C 223.158 101.306,223.871 101.741,224.021 101.741 C 224.172 101.741,225.119 102.568,226.126 103.578 C 227.134 104.589,227.755 105.026,227.507 104.550 C 227.028 103.629,222.212 99.807,221.531 99.807 C 221.308 99.807,221.716 100.242,222.437 100.774 M228.942 107.648 C 229.469 108.750,230.034 110.092,230.198 110.629 C 230.466 111.512,230.498 111.525,230.528 110.767 C 230.561 109.924,228.869 106.192,228.292 105.835 C 228.122 105.730,228.414 106.546,228.942 107.648 M280.601 107.541 C 279.747 107.885,279.011 108.711,279.571 108.695 C 279.743 108.691,280.319 108.346,280.851 107.930 C 281.907 107.104,281.861 107.032,280.601 107.541 M331.726 107.938 C 331.860 108.155,332.869 108.788,333.968 109.344 C 335.329 110.034,335.798 110.155,335.440 109.724 C 335.151 109.376,334.699 109.091,334.434 109.091 C 334.170 109.091,333.511 108.743,332.970 108.317 C 331.906 107.481,331.336 107.307,331.726 107.938 M276.983 109.671 C 276.714 109.995,276.672 110.251,276.888 110.251 C 277.101 110.251,277.491 109.990,277.756 109.671 C 278.025 109.347,278.067 109.091,277.851 109.091 C 277.638 109.091,277.247 109.352,276.983 109.671 M274.531 110.877 C 273.927 111.205,273.528 111.568,273.644 111.684 C 273.760 111.800,274.428 111.528,275.129 111.080 C 276.596 110.140,276.162 109.993,274.531 110.877 M337.432 111.025 C 339.286 112.019,339.799 112.019,338.298 111.025 C 337.660 110.602,336.879 110.255,336.563 110.254 C 336.247 110.253,336.638 110.600,337.432 111.025 M271.453 112.069 C 270.505 112.315,268.573 113.341,269.052 113.344 C 269.265 113.345,270.309 113.006,271.373 112.590 C 273.134 111.903,273.177 111.621,271.453 112.069 M341.006 112.573 C 343.006 113.538,343.737 113.538,341.973 112.573 C 341.228 112.165,340.358 111.830,340.039 111.828 C 339.720 111.826,340.155 112.161,341.006 112.573 M230.643 113.153 C 230.635 113.791,230.764 115.184,230.930 116.248 C 231.176 117.829,231.235 117.935,231.254 116.828 C 231.267 116.083,231.138 114.691,230.968 113.733 C 230.742 112.467,230.654 112.309,230.643 113.153 M265.571 114.157 C 263.900 115.004,264.631 114.915,267.118 113.969 C 268.000 113.633,268.332 113.379,267.892 113.376 C 267.466 113.374,266.422 113.725,265.571 114.157 M344.874 113.969 C 347.361 114.915,348.093 115.004,346.422 114.157 C 345.571 113.725,344.526 113.374,344.101 113.376 C 343.660 113.379,343.993 113.633,344.874 113.969 M58.943 117.099 C 58.979 119.595,59.156 120.809,59.535 121.161 C 59.989 121.584,60.023 121.540,59.748 120.890 C 59.569 120.464,59.303 118.636,59.157 116.828 L 58.892 113.540 58.943 117.099 M260.735 115.512 L 259.768 116.103 260.735 115.856 C 261.267 115.720,262.224 115.466,262.863 115.291 L 264.023 114.973 262.863 114.947 C 262.224 114.933,261.267 115.187,260.735 115.512 M350.037 115.520 C 350.962 115.843,351.813 116.014,351.928 115.899 C 352.219 115.608,350.232 114.890,349.201 114.912 C 348.669 114.924,348.979 115.149,350.037 115.520 M253.965 117.041 L 252.805 117.606 253.965 117.356 C 254.603 117.218,255.735 116.976,256.480 116.818 L 257.834 116.530 256.480 116.503 C 255.735 116.488,254.603 116.730,253.965 117.041 M356.480 117.030 C 358.933 117.711,359.998 117.706,358.221 117.021 C 357.476 116.735,356.344 116.498,355.706 116.497 C 354.793 116.494,354.958 116.608,356.480 117.030 M250.930 118.309 C 249.481 119.911,250.748 122.666,252.901 122.596 L 253.965 122.561 252.757 122.210 C 250.443 121.540,249.893 119.079,251.838 118.100 C 252.440 117.797,252.572 117.611,252.188 117.607 C 251.848 117.604,251.282 117.920,250.930 118.309 M360.638 118.210 C 362.731 119.345,361.543 121.523,358.422 122.271 C 357.350 122.528,357.334 122.555,358.227 122.591 C 359.678 122.650,362.089 120.872,362.089 119.743 C 362.089 118.662,361.153 117.595,360.224 117.617 C 359.789 117.627,359.926 117.823,360.638 118.210 M230.651 119.536 C 230.651 120.280,230.730 120.585,230.828 120.213 C 230.925 119.840,230.925 119.231,230.828 118.859 C 230.730 118.486,230.651 118.791,230.651 119.536 M229.913 122.498 C 229.662 123.311,229.518 124.037,229.591 124.111 C 229.880 124.400,230.602 122.544,230.489 121.804 C 230.401 121.236,230.242 121.427,229.913 122.498 M60.351 123.410 C 60.352 123.726,60.699 124.507,61.122 125.145 C 62.116 126.646,62.116 126.134,61.122 124.279 C 60.696 123.485,60.349 123.094,60.351 123.410 M258.607 123.612 C 259.246 123.904,260.116 124.139,260.542 124.135 C 260.967 124.130,260.532 123.879,259.574 123.578 C 257.427 122.901,257.082 122.913,258.607 123.612 M353.503 123.222 C 353.390 123.334,352.534 123.591,351.601 123.792 L 349.903 124.159 351.769 123.978 C 353.641 123.798,355.638 123.054,354.320 123.029 C 353.983 123.023,353.615 123.109,353.503 123.222 M228.128 126.488 C 227.547 127.522,225.964 129.514,224.610 130.915 C 223.257 132.316,222.275 133.462,222.429 133.462 C 223.406 133.462,229.884 125.306,229.340 124.762 C 229.255 124.677,228.710 125.454,228.128 126.488 M263.670 124.909 C 263.901 125.161,264.771 125.444,265.604 125.539 C 266.961 125.694,266.997 125.677,265.957 125.380 C 265.319 125.197,264.449 124.913,264.023 124.749 C 263.439 124.524,263.352 124.563,263.670 124.909 M346.615 125.169 C 345.681 125.523,345.508 125.688,346.058 125.704 C 346.496 125.716,347.192 125.470,347.605 125.157 C 348.487 124.490,348.407 124.491,346.615 125.169 M343.520 126.306 C 342.988 126.610,342.727 126.858,342.940 126.858 C 343.153 126.858,343.762 126.610,344.294 126.306 C 344.826 126.002,345.087 125.753,344.874 125.753 C 344.662 125.753,344.052 126.002,343.520 126.306 M269.029 126.705 C 269.442 127.017,270.052 127.272,270.383 127.270 C 270.715 127.269,270.488 127.008,269.878 126.690 C 268.476 125.959,268.052 125.966,269.029 126.705 M61.908 126.736 C 61.901 126.973,62.897 128.204,64.120 129.471 C 65.343 130.738,65.888 131.241,65.331 130.588 C 64.096 129.141,63.256 128.102,62.495 127.079 C 62.179 126.654,61.915 126.499,61.908 126.736 M271.180 127.485 C 271.180 127.769,273.548 128.869,273.896 128.747 C 274.085 128.681,273.551 128.335,272.709 127.978 C 271.868 127.622,271.180 127.400,271.180 127.485 M338.878 128.046 C 338.133 128.454,337.698 128.788,337.911 128.788 C 338.124 128.788,338.907 128.454,339.652 128.046 C 340.397 127.639,340.832 127.305,340.619 127.305 C 340.406 127.305,339.623 127.639,338.878 128.046 M275.948 129.708 C 276.762 130.177,278.851 131.477,280.590 132.596 C 282.329 133.716,283.268 134.198,282.675 133.667 C 281.547 132.657,275.228 128.808,274.746 128.837 C 274.593 128.847,275.134 129.238,275.948 129.708 M335.326 129.799 C 334.330 130.318,333.406 130.919,333.273 131.135 C 332.883 131.765,333.454 131.590,334.517 130.754 C 335.058 130.329,335.717 129.981,335.982 129.981 C 336.246 129.981,336.679 129.720,336.944 129.400 C 337.563 128.655,337.489 128.673,335.326 129.799 M329.522 133.788 C 327.966 135.031,325.988 136.737,325.127 137.579 C 322.344 140.303,316.161 148.398,316.559 148.796 C 316.655 148.892,317.751 147.440,318.996 145.569 C 321.076 142.440,327.070 136.002,329.803 133.962 C 331.932 132.372,332.883 131.554,332.617 131.541 C 332.472 131.534,331.079 132.545,329.522 133.788 M67.137 132.406 C 67.364 132.996,72.343 135.785,73.160 135.780 C 73.454 135.778,72.738 135.331,71.570 134.787 C 70.401 134.243,68.881 133.367,68.191 132.842 C 67.502 132.316,67.027 132.120,67.137 132.406 M217.795 135.203 C 217.234 135.524,217.072 135.757,217.408 135.757 C 217.727 135.758,218.326 135.503,218.739 135.191 C 219.695 134.468,219.066 134.476,217.795 135.203 M285.290 135.863 C 288.354 138.401,291.388 141.415,291.926 142.456 C 292.229 143.042,292.661 143.520,292.886 143.520 C 293.933 143.520,287.939 137.259,285.251 135.545 L 283.752 134.589 285.290 135.863 M74.565 136.056 C 75.044 136.149,75.827 136.149,76.306 136.056 C 76.784 135.964,76.393 135.889,75.435 135.889 C 74.478 135.889,74.086 135.964,74.565 136.056 M214.608 136.057 C 215.089 136.149,215.786 136.146,216.155 136.049 C 216.525 135.952,216.132 135.877,215.280 135.881 C 214.429 135.885,214.127 135.964,214.608 136.057 M112.120 136.460 C 130.700 136.516,160.990 136.516,179.431 136.460 C 197.872 136.405,182.669 136.359,145.648 136.359 C 108.627 136.359,93.539 136.405,112.120 136.460 M295.249 146.712 C 295.558 147.191,296.468 148.766,297.272 150.213 C 298.077 151.661,298.811 152.769,298.903 152.676 C 299.106 152.474,295.232 145.841,294.912 145.841 C 294.789 145.841,294.941 146.233,295.249 146.712 M315.336 150.926 C 315.063 151.362,314.925 151.804,315.029 151.908 C 315.133 152.012,315.420 151.719,315.667 151.257 C 316.252 150.165,315.980 149.893,315.336 150.926 M313.167 155.648 C 312.346 157.491,311.762 159.087,311.870 159.194 C 311.977 159.301,312.373 158.647,312.751 157.741 C 313.128 156.834,313.778 155.436,314.195 154.634 C 314.612 153.831,314.887 152.977,314.806 152.736 C 314.726 152.495,313.988 153.806,313.167 155.648 M299.264 153.923 C 299.601 155.206,300.948 158.124,300.959 157.593 C 300.963 157.354,300.529 156.223,299.994 155.079 C 299.459 153.934,299.130 153.414,299.264 153.923 M300.982 158.485 C 300.960 159.174,301.735 161.064,301.951 160.847 C 302.055 160.744,301.883 160.067,301.568 159.343 C 301.254 158.619,300.991 158.233,300.982 158.485 M310.865 161.843 C 310.458 163.043,310.240 164.141,310.382 164.282 C 310.523 164.424,310.638 164.276,310.638 163.954 C 310.638 163.632,310.912 162.819,311.247 162.148 C 311.582 161.477,311.799 160.643,311.730 160.294 C 311.662 159.945,311.272 160.642,310.865 161.843 M302.541 163.689 C 302.526 164.249,302.769 165.294,303.080 166.010 C 303.790 167.645,303.799 167.106,303.104 164.603 C 302.730 163.257,302.559 162.979,302.541 163.689 M309.546 166.890 C 309.265 168.119,309.123 169.213,309.231 169.321 C 309.526 169.616,310.315 166.406,310.178 165.470 C 310.111 165.015,309.833 165.640,309.546 166.890 M304.077 170.281 C 304.061 170.977,305.789 172.534,306.576 172.534 C 307.369 172.534,309.093 170.974,309.066 170.281 C 309.049 169.820,308.940 169.886,308.690 170.509 C 307.947 172.357,305.618 172.439,304.646 170.650 C 304.265 169.950,304.088 169.835,304.077 170.281 M122.758 179.787 C 148.680 179.842,190.981 179.842,216.762 179.787 C 242.543 179.732,221.335 179.687,169.632 179.687 C 117.930 179.687,96.837 179.732,122.758 179.787 M71.351 180.452 C 70.938 180.764,70.782 181.025,71.006 181.032 C 71.229 181.039,71.577 180.884,71.779 180.687 C 71.982 180.491,72.669 180.256,73.308 180.165 L 74.468 180.000 73.285 179.942 C 72.634 179.910,71.764 180.140,71.351 180.452 M266.731 180.912 C 271.502 182.960,274.432 185.499,276.624 189.487 C 277.130 190.407,277.600 190.990,277.669 190.784 C 278.400 188.590,268.281 179.827,265.101 179.900 C 264.721 179.909,265.455 180.364,266.731 180.912 M67.061 182.882 C 65.160 184.305,63.056 186.360,63.056 186.792 C 63.056 186.913,63.883 186.214,64.894 185.240 C 65.904 184.265,67.424 183.010,68.272 182.450 C 69.119 181.890,69.629 181.431,69.405 181.431 C 69.182 181.431,68.127 182.084,67.061 182.882 M62.045 188.213 C 61.693 188.752,61.474 189.263,61.560 189.349 C 61.646 189.435,62.010 188.994,62.368 188.370 C 63.167 186.979,62.930 186.864,62.045 188.213 M277.782 191.683 C 277.773 191.896,278.024 192.924,278.341 193.969 C 279.080 196.405,279.078 200.220,278.337 202.321 C 277.529 204.611,277.635 205.141,278.530 203.288 C 279.567 201.142,279.567 195.508,278.530 193.037 C 278.128 192.079,277.792 191.470,277.782 191.683 M59.178 194.803 C 58.971 195.349,58.831 197.133,58.867 198.768 L 58.934 201.741 59.178 198.453 C 59.312 196.644,59.562 194.860,59.733 194.487 C 59.904 194.115,59.934 193.810,59.800 193.810 C 59.665 193.810,59.386 194.257,59.178 194.803 M60.352 205.077 C 60.332 206.412,65.920 213.361,67.840 214.389 C 68.274 214.621,67.477 213.698,66.070 212.338 C 64.662 210.978,62.801 208.733,61.933 207.350 C 61.065 205.967,60.354 204.944,60.352 205.077 M277.257 205.609 C 277.106 206.035,276.874 206.644,276.743 206.963 C 276.549 207.433,276.629 207.423,277.167 206.912 C 277.532 206.565,277.763 205.956,277.681 205.558 C 277.540 204.877,277.516 204.879,277.257 205.609 M275.450 209.149 C 274.935 209.900,273.546 211.389,272.364 212.459 C 271.181 213.529,270.561 214.224,270.986 214.004 C 272.660 213.139,277.003 208.402,276.544 207.943 C 276.457 207.856,275.964 208.398,275.450 209.149 M268.526 215.100 C 267.327 216.099,267.868 216.088,269.140 215.087 C 269.681 214.662,269.970 214.319,269.781 214.326 C 269.593 214.333,269.028 214.681,268.526 215.100 M71.396 216.429 C 71.809 216.741,72.408 216.996,72.727 216.995 C 73.064 216.994,72.901 216.762,72.340 216.441 C 71.069 215.714,70.441 215.706,71.396 216.429 M265.935 216.429 C 265.522 216.741,265.358 216.997,265.571 216.997 C 265.783 216.997,266.295 216.741,266.708 216.429 C 267.121 216.116,267.285 215.861,267.072 215.861 C 266.860 215.861,266.348 216.116,265.935 216.429 M77.432 217.961 C 79.605 218.427,259.232 218.409,261.232 217.943 C 262.091 217.743,224.071 217.602,169.225 217.602 C 110.674 217.602,76.381 217.736,77.432 217.961 M76.402 260.353 C 75.960 260.546,126.368 260.684,194.004 260.675 C 259.110 260.667,312.031 260.515,311.605 260.338 C 310.567 259.906,77.395 259.920,76.402 260.353 M70.744 261.776 C 70.324 262.294,70.320 262.366,70.727 262.122 C 71.009 261.952,71.706 261.672,72.274 261.500 L 73.308 261.188 72.291 261.155 C 71.732 261.137,71.036 261.416,70.744 261.776 M315.280 261.643 C 315.812 261.923,316.330 262.085,316.430 262.003 C 316.702 261.780,315.561 261.134,314.894 261.133 C 314.574 261.133,314.747 261.362,315.280 261.643 M67.677 263.377 C 65.886 264.516,63.056 267.090,63.056 267.580 C 63.056 267.736,63.883 267.066,64.894 266.092 C 65.904 265.118,67.515 263.864,68.472 263.306 C 69.429 262.747,70.029 262.288,69.805 262.286 C 69.581 262.284,68.623 262.775,67.677 263.377 M318.608 263.280 C 319.650 263.828,321.285 265.003,322.242 265.891 L 323.981 267.505 322.629 266.004 C 321.145 264.357,318.161 262.282,317.275 262.282 C 316.966 262.282,317.565 262.731,318.608 263.280 M324.295 268.521 C 324.616 269.026,325.243 270.133,325.689 270.981 C 326.134 271.829,326.499 272.295,326.499 272.017 C 326.499 271.404,324.647 268.182,324.101 267.844 C 323.886 267.712,323.974 268.016,324.295 268.521 M62.045 269.064 C 61.693 269.603,61.474 270.114,61.560 270.200 C 61.646 270.286,62.010 269.845,62.368 269.221 C 63.167 267.830,62.930 267.715,62.045 269.064 M326.516 272.836 C 326.507 273.003,326.760 273.764,327.079 274.528 C 329.185 279.567,327.108 287.010,322.078 292.450 C 320.999 293.616,320.462 294.313,320.885 293.997 C 323.006 292.415,326.139 288.428,326.702 286.593 C 326.855 286.095,327.177 285.442,327.417 285.144 C 328.292 284.054,328.227 275.745,327.329 274.043 C 326.891 273.213,326.526 272.670,326.516 272.836 M59.341 275.113 C 58.684 276.176,58.687 282.139,59.345 283.559 C 59.690 284.304,59.854 284.565,59.709 284.139 C 59.218 282.694,59.102 277.397,59.536 276.154 C 59.986 274.863,59.872 274.254,59.341 275.113 M60.348 286.424 C 60.348 286.858,62.305 290.104,62.723 290.362 C 62.925 290.487,62.529 289.660,61.844 288.525 C 60.379 286.096,60.348 286.053,60.348 286.424 M64.048 292.106 C 64.672 292.764,65.880 293.833,66.731 294.483 C 67.644 295.179,67.259 294.689,65.791 293.286 C 63.177 290.788,62.111 290.066,64.048 292.106 M319.135 294.934 C 318.824 295.232,317.875 295.841,317.027 296.288 C 316.179 296.734,315.761 297.099,316.099 297.099 C 316.690 297.099,319.923 294.971,319.923 294.582 C 319.923 294.274,319.737 294.356,319.135 294.934 M72.340 297.638 C 72.872 297.965,73.743 298.220,74.275 298.206 C 75.159 298.182,75.143 298.154,74.081 297.881 C 73.443 297.716,72.573 297.461,72.147 297.313 C 71.633 297.135,71.698 297.245,72.340 297.638 M313.540 297.693 C 312.655 298.098,312.563 298.226,313.153 298.229 C 313.578 298.232,314.264 297.979,314.677 297.667 C 315.598 296.970,315.093 296.982,313.540 297.693 M136.074 298.549 C 168.042 298.604,220.353 298.604,252.321 298.549 C 284.289 298.495,258.133 298.450,194.197 298.450 C 130.261 298.450,104.105 298.495,136.074 298.549 " stroke="none" fill="#1c4c52" fill-rule="evenodd"></path></g></svg>